C:\Users\u0150099\Documents\PredSim_dev\Subjects\test_1\MuscleAnalysis\dummy_motion.mot
version=1
nRows=10
nColumns=32
inDegrees=no
endheader
                time	         pelvis_tilt	         pelvis_list	     pelvis_rotation	           pelvis_tx	           pelvis_ty	           pelvis_tz	       hip_flexion_l	     hip_adduction_l	      hip_rotation_l	       hip_flexion_r	     hip_adduction_r	      hip_rotation_r	        knee_angle_l	        knee_angle_r	       ankle_angle_l	       ankle_angle_r	    subtalar_angle_l	    subtalar_angle_r	         mtp_angle_l	         mtp_angle_r	    lumbar_extension	      lumbar_bending	     lumbar_rotation	          arm_flex_l	           arm_add_l	           arm_rot_l	          arm_flex_r	           arm_add_r	           arm_rot_r	        elbow_flex_l	        elbow_flex_r	
          0.01000000	          0.00000000	          0.00000000	          0.00000000	          0.00000000	          0.00000000	          0.00000000	         -0.79480839	         -0.04296661	         -0.39863196	         -0.08576125	          0.24625394	          0.18185712	         -1.32462655	         -0.92467219	         -0.14765577	          0.05381167	         -0.29997926	         -0.24022416	         -0.33232399	          0.72820430	          0.18853311	         -0.36212335	         -0.17937497	         -0.23372999	         -0.32295009	         -0.35577963	          0.41407517	          0.40021295	          0.14780433	          0.50677101	         -0.43487185	
          0.02000000	          0.00000000	          0.00000000	          0.00000000	          0.00000000	          0.00000000	          0.00000000	         -0.54839515	          0.12672978	         -0.06610860	          0.05648936	         -0.47887676	         -0.50820072	         -1.51476413	         -1.06801488	         -0.38900026	          0.38843543	          0.12379436	          0.13160455	          0.51655692	          0.51568329	          0.05450451	          0.33607558	          0.21371624	          0.50914628	         -0.16674642	          0.04497844	          0.10640994	         -0.02591180	          0.42851722	          0.17107776	         -0.04664239	
          0.03000000	          0.00000000	          0.00000000	          0.00000000	          0.00000000	          0.00000000	          0.00000000	          0.71741835	          0.24244477	          0.34963302	         -0.43892962	          0.16601722	          0.23484856	         -1.14633830	         -0.69238484	          0.23375177	          0.45887771	          0.40605808	          0.51389113	         -0.01343842	         -0.23957870	         -0.49464275	          0.00857032	          0.35029214	          0.25586383	          0.03349108	         -0.48292817	         -0.35404970	         -0.27162865	         -0.15664166	         -0.18100098	         -0.20940084	
          0.04000000	          0.00000000	          0.00000000	          0.00000000	          0.00000000	          0.00000000	          0.00000000	          0.28387065	          0.34379965	          0.17579639	          0.50455609	         -0.06505768	         -0.19337405	         -0.70155386	         -0.35822428	          0.11564837	         -0.51200267	         -0.34457471	         -0.32614912	          0.86719321	          0.18190719	         -0.00852268	         -0.49358115	         -0.41841880	          0.11750734	         -0.31025504	          0.18165076	         -0.00864049	          0.50076653	         -0.02026692	         -0.41442095	          0.07436023	
          0.05000000	          0.00000000	          0.00000000	          0.00000000	          0.00000000	          0.00000000	          0.00000000	          0.68846861	          0.10044612	         -0.25484572	         -0.81205456	          0.04393689	         -0.02776852	         -0.87674343	         -0.30756204	          0.07983333	         -0.00649815	          0.21446876	          0.38835073	          0.71712852	          0.79051650	         -0.27342934	         -0.04032774	          0.06842785	         -0.33107898	          0.31584146	         -0.09891035	         -0.12021774	         -0.35216945	          0.06701452	         -0.29158861	          0.25164901	
          0.06000000	          0.00000000	          0.00000000	          0.00000000	          0.00000000	          0.00000000	          0.00000000	          0.45111027	         -0.29763330	          0.29674513	          0.18308947	          0.44509891	         -0.36692299	         -0.49639069	         -1.53702487	          0.40303669	          0.18126672	          0.46090999	         -0.07775237	          0.15846060	         -0.12536007	         -0.16600841	         -0.29831682	         -0.01253604	         -0.09602112	         -0.10429694	          0.35740844	          0.21512959	         -0.19850090	         -0.38910351	         -0.51084305	         -0.22377989	
          0.07000000	          0.00000000	          0.00000000	          0.00000000	          0.00000000	          0.00000000	          0.00000000	         -0.43550968	         -0.19567418	          0.06345596	          0.80938238	          0.40812915	          0.02443013	         -1.02541496	         -1.26751581	         -0.03106249	          0.27477628	         -0.45154456	         -0.13696997	         -0.12985989	          0.05457007	          0.43248714	          0.23489237	         -0.25988137	          0.05835596	         -0.47396221	         -0.30330391	         -0.46031070	         -0.48099268	          0.21231372	          0.05876290	         -0.41625805	
          0.08000000	          0.00000000	          0.00000000	          0.00000000	          0.00000000	          0.00000000	          0.00000000	         -0.23787912	         -0.40431207	         -0.44309395	          0.65886993	         -0.27597772	          0.41889055	         -0.08445933	         -0.15544592	         -0.49684638	         -0.40993593	         -0.04284211	         -0.48896952	          0.46150910	          0.40469199	          0.21513493	          0.17635744	          0.16621526	         -0.42092085	          0.43124838	         -0.13175566	          0.00080594	          0.22299674	          0.36261267	          0.21774870	          0.11388124	
          0.09000000	          0.00000000	          0.00000000	          0.00000000	          0.00000000	          0.00000000	          0.00000000	          0.02254358	         -0.50841518	          0.47455664	         -0.66320254	         -0.35939263	          0.38784460	         -0.31507539	         -1.23298575	          0.47526980	         -0.16357046	          0.03936880	          0.00491290	          0.27578112	         -0.07077852	         -0.35637035	         -0.16530376	         -0.50901780	         -0.19262088	          0.12380767	          0.29280893	         -0.24839016	          0.16847207	         -0.23630060	         -0.05163671	          0.51747465	
          0.10000000	          0.00000000	          0.00000000	          0.00000000	          0.00000000	          0.00000000	          0.00000000	         -0.06807566	          0.42785472	         -0.11806181	         -0.20374993	         -0.16249541	         -0.23104071	         -0.19146110	         -0.52593461	         -0.24020242	         -0.24679141	         -0.14458350	          0.26987643	          0.10994889	          0.28734548	          0.39789600	          0.42039455	          0.47887087	          0.35085632	          0.26941999	          0.51885147	          0.51798941	          0.01567112	         -0.50576943	          0.41468441	          0.31575188	
